<?xml version="1.0" encoding="UTF-8" standalone="no"?>
<!-- Created with Inkscape (http://www.inkscape.org/) -->

<svg
   width="3000"
   height="3000"
   viewBox="0 0 793.74991 793.74991"
   version="1.1"
   id="svg1"
   xml:space="preserve"
   inkscape:version="1.4 (86a8ad7, 2024-10-11)"
   sodipodi:docname="jitu_logo_full-light.svg"
   inkscape:export-filename="jitu_logo_full-light.png"
   inkscape:export-xdpi="96"
   inkscape:export-ydpi="96"
   xmlns:inkscape="http://www.inkscape.org/namespaces/inkscape"
   xmlns:sodipodi="http://sodipodi.sourceforge.net/DTD/sodipodi-0.dtd"
   xmlns="http://www.w3.org/2000/svg"
   xmlns:svg="http://www.w3.org/2000/svg"><sodipodi:namedview
     id="namedview1"
     pagecolor="#ffffff"
     bordercolor="#000000"
     borderopacity="0.25"
     inkscape:showpageshadow="2"
     inkscape:pageopacity="0.0"
     inkscape:pagecheckerboard="true"
     inkscape:deskcolor="#d1d1d1"
     inkscape:document-units="mm"
     labelstyle="default"
     inkscape:clip-to-page="true"
     inkscape:zoom="0.5"
     inkscape:cx="1142"
     inkscape:cy="1573"
     inkscape:window-width="3200"
     inkscape:window-height="1711"
     inkscape:window-x="-9"
     inkscape:window-y="-9"
     inkscape:window-maximized="1"
     inkscape:current-layer="g1"
     showgrid="false"
     showguides="true" /><defs
     id="defs1"><rect
       x="785.95879"
       y="728.87798"
       width="1598.2626"
       height="742.05048"
       id="rect1" /></defs><text
     xml:space="preserve"
     style="font-style:italic;font-variant:normal;font-weight:800;font-stretch:normal;font-size:190.5px;font-family:'Plus Jakarta Sans';-inkscape-font-specification:'Plus Jakarta Sans Ultra-Bold Italic';text-align:start;writing-mode:lr-tb;direction:ltr;text-anchor:start;fill:#ffffff;stroke-width:0.264583"
     x="238.30922"
     y="488.94324"
     id="text1"><tspan
       sodipodi:role="line"
       id="tspan1"
       style="font-size:190.5px;stroke-width:0.264583;fill:#ffffff"
       x="238.30922"
       y="488.94324">JITU</tspan></text><g
     style="fill:#ffffff;fill-opacity:1"
     id="g1"
     transform="matrix(4.45,0,0,4.45,171.63667,293.62075)"
     inkscape:label="g1"
     inkscape:transform-center-y="-4.9288481"><path
       d="m 12,6 c -3.309,0 -6,2.691 -6,6 0,3.309 2.691,6 6,6 3.309,0 6,-2.691 6,-6 0,-3.309 -2.691,-6 -6,-6 z m 0,10 C 9.794,16 8,14.206 8,12 8,9.794 9.794,8 12,8 c 2.206,0 4,1.794 4,4 0,2.206 -1.794,4 -4,4 z"
       id="path1"
       sodipodi:nodetypes="ssssssssss"
       style="fill:#ffffff;fill-opacity:1" /><path
       d="M 12,2 C 6.579,2 2,6.579 2,12 2,17.421 6.579,22 12,22 17.421,22 22,17.421 22,12 22,6.579 17.421,2 12,2 Z m 0,18 C 7.663,20 4,16.337 4,12 4,7.663 7.663,4 12,4 c 4.337,0 8,3.663 8,8 0,4.337 -3.663,8 -8,8 z"
       id="path2"
       sodipodi:nodetypes="ssssssssss"
       style="fill:#ffffff;fill-opacity:1" /><path
       d="m 12,10 c -1.081,0 -2,0.919 -2,2 0,1.081 0.919,2 2,2 1.081,0 2,-0.919 2,-2 0,-1.081 -0.919,-2 -2,-2 z"
       id="path3"
       sodipodi:nodetypes="sssss"
       style="fill:#ffffff;fill-opacity:1" /></g></svg>
